<?xml version="1.0" encoding="UTF-8"?>
<!DOCTYPE svg PUBLIC "-//W3C//DTD SVG 1.1//EN" "http://www.w3.org/Graphics/SVG/1.1/DTD/svg11.dtd">
<svg xmlns="http://www.w3.org/2000/svg" version="1.1" width="382px" height="384px" style="shape-rendering:geometricPrecision; text-rendering:geometricPrecision; image-rendering:optimizeQuality; fill-rule:evenodd; clip-rule:evenodd" xmlns:xlink="http://www.w3.org/1999/xlink">
<g><path style="opacity:1" fill="#fefefe" d="M -0.5,-0.5 C 126.833,-0.5 254.167,-0.5 381.5,-0.5C 381.5,127.5 381.5,255.5 381.5,383.5C 254.167,383.5 126.833,383.5 -0.5,383.5C -0.5,255.5 -0.5,127.5 -0.5,-0.5 Z"/></g>
<g><path style="opacity:1" fill="#030303" d="M 201.5,38.5 C 201.5,40.5 202.5,41.5 204.5,41.5C 206.833,44.5 209.5,47.1667 212.5,49.5C 213.911,51.914 215.911,53.5806 218.5,54.5C 219.262,56.2624 220.596,57.2624 222.5,57.5C 223.262,59.2624 224.596,60.2624 226.5,60.5C 226.973,61.9063 227.973,62.573 229.5,62.5C 232.132,63.472 234.465,64.8053 236.5,66.5C 239.088,68.5918 242.088,69.9251 245.5,70.5C 247.102,72.0739 249.102,72.7406 251.5,72.5C 253.838,74.0395 256.505,74.7062 259.5,74.5C 261.838,76.0395 264.505,76.7062 267.5,76.5C 274.097,78.0301 280.93,78.6968 288,78.5C 293.012,78.4993 297.845,78.1659 302.5,77.5C 306.154,77.0578 309.821,76.7244 313.5,76.5C 316.167,76.1667 318.833,75.8333 321.5,75.5C 322.374,88.1441 322.708,100.811 322.5,113.5C 322.381,125.207 321.715,136.874 320.5,148.5C 319.087,151.219 318.42,154.219 318.5,157.5C 317.566,158.568 317.232,159.901 317.5,161.5C 316.566,162.568 316.232,163.901 316.5,165.5C 233.167,165.5 149.833,165.5 66.5,165.5C 65.8498,159.818 65.0164,154.151 64,148.5C 63.6174,147.944 63.1174,147.611 62.5,147.5C 61.5269,145.052 61.1936,142.385 61.5,139.5C 61.4219,132.3 60.7552,125.3 59.5,118.5C 59.1667,118.5 58.8333,118.5 58.5,118.5C 58.3632,103.819 58.6965,89.152 59.5,74.5C 64.1502,75.2596 68.8169,75.9262 73.5,76.5C 96.0855,80.8508 118.085,78.5175 139.5,69.5C 141.027,69.573 142.027,68.9063 142.5,67.5C 146.316,66.0906 149.983,64.424 153.5,62.5C 155.404,62.2624 156.738,61.2624 157.5,59.5C 161.809,56.1976 166.143,52.8643 170.5,49.5C 175.506,46.4939 179.506,42.4939 182.5,37.5C 184.167,34.1761 186.334,31.1761 189,28.5C 189.483,27.552 189.649,26.552 189.5,25.5C 190.822,25.33 191.989,25.6634 193,26.5C 195.61,30.7424 198.443,34.7424 201.5,38.5 Z"/></g>
<g><path style="opacity:1" fill="#5e5e5e" d="M 201.5,38.5 C 202.833,39.1667 203.833,40.1667 204.5,41.5C 202.5,41.5 201.5,40.5 201.5,38.5 Z"/></g>
<g><path style="opacity:1" fill="#494949" d="M 182.5,37.5 C 179.506,42.4939 175.506,46.4939 170.5,49.5C 174.269,45.0643 178.269,41.0643 182.5,37.5 Z"/></g>
<g><path style="opacity:1" fill="#a3a3a3" d="M 212.5,49.5 C 215.089,50.4194 217.089,52.086 218.5,54.5C 215.911,53.5806 213.911,51.914 212.5,49.5 Z"/></g>
<g><path style="opacity:1" fill="#8f8f8f" d="M 222.5,57.5 C 224.404,57.7376 225.738,58.7376 226.5,60.5C 224.596,60.2624 223.262,59.2624 222.5,57.5 Z"/></g>
<g><path style="opacity:1" fill="#5f5f5f" d="M 157.5,59.5 C 156.738,61.2624 155.404,62.2624 153.5,62.5C 154.262,60.7376 155.596,59.7376 157.5,59.5 Z"/></g>
<g><path style="opacity:1" fill="#828282" d="M 226.5,60.5 C 228.027,60.427 229.027,61.0937 229.5,62.5C 227.973,62.573 226.973,61.9063 226.5,60.5 Z"/></g>
<g><path style="opacity:1" fill="#b8b8b8" d="M 236.5,66.5 C 240.38,66.1979 243.38,67.5312 245.5,70.5C 242.088,69.9251 239.088,68.5918 236.5,66.5 Z"/></g>
<g><path style="opacity:1" fill="#787878" d="M 142.5,67.5 C 142.027,68.9063 141.027,69.573 139.5,69.5C 139.973,68.0937 140.973,67.427 142.5,67.5 Z"/></g>
<g><path style="opacity:1" fill="#8b8b8b" d="M 245.5,70.5 C 247.898,70.2594 249.898,70.9261 251.5,72.5C 249.102,72.7406 247.102,72.0739 245.5,70.5 Z"/></g>
<g><path style="opacity:1" fill="#a5a5a5" d="M 251.5,72.5 C 254.428,72.5651 257.095,73.2318 259.5,74.5C 256.505,74.7062 253.838,74.0395 251.5,72.5 Z"/></g>
<g><path style="opacity:1" fill="#c3c3c3" d="M 59.5,74.5 C 60.0968,73.8614 60.9302,73.528 62,73.5C 66.1566,73.8159 69.9899,74.8159 73.5,76.5C 68.8169,75.9262 64.1502,75.2596 59.5,74.5 Z"/></g>
<g><path style="opacity:1" fill="#b8b8b8" d="M 267.5,76.5 C 279.148,77.3017 290.815,77.6351 302.5,77.5C 297.845,78.1659 293.012,78.4993 288,78.5C 280.93,78.6968 274.097,78.0301 267.5,76.5 Z"/></g>
<g><path style="opacity:1" fill="#565656" d="M 204.5,86.5 C 210.82,86.3996 216.82,87.3996 222.5,89.5C 216.28,89.0431 210.28,88.0431 204.5,86.5 Z"/></g>
<g><path style="opacity:1" fill="#9a9a9a" d="M 185.5,87.5 C 176.81,87.8845 168.143,88.5511 159.5,89.5C 168.031,86.6649 176.698,85.9982 185.5,87.5 Z"/></g>
<g><path style="opacity:1" fill="#444444" d="M 323.5,113.5 C 323.167,113.5 322.833,113.5 322.5,113.5C 322.708,100.811 322.374,88.1441 321.5,75.5C 318.833,75.8333 316.167,76.1667 313.5,76.5C 316.507,74.8255 319.84,74.1588 323.5,74.5C 323.5,87.5 323.5,100.5 323.5,113.5 Z"/></g>
<g><path style="opacity:1" fill="#cdcdcd" d="M 59.5,74.5 C 58.6965,89.152 58.3632,103.819 58.5,118.5C 57.8338,112.843 57.5005,107.01 57.5,101C 57.3371,91.9508 58.0038,83.1174 59.5,74.5 Z"/></g>
<g><path style="opacity:1" fill="#f3f3f3" d="M 204.5,86.5 C 210.28,88.0431 216.28,89.0431 222.5,89.5C 226.702,89.8168 230.702,89.4834 234.5,88.5C 235.5,88.5 236.5,88.5 237.5,88.5C 237.5,107.5 237.5,126.5 237.5,145.5C 234.114,146.97 230.447,147.637 226.5,147.5C 217.877,146.238 209.21,145.238 200.5,144.5C 198.631,144.507 196.964,144.84 195.5,145.5C 195.167,145.5 194.833,145.5 194.5,145.5C 193.338,127.005 193.171,108.338 194,89.5C 194.717,88.9558 195.217,88.2891 195.5,87.5C 198.287,86.5233 201.287,86.19 204.5,86.5 Z"/></g>
<g><path style="opacity:1" fill="#f6f6f6" d="M 185.5,87.5 C 187.062,87.7329 188.395,88.3995 189.5,89.5C 190.154,108.53 189.487,127.197 187.5,145.5C 185.217,144.971 182.883,144.637 180.5,144.5C 169.205,146.196 157.871,147.029 146.5,147C 145.944,146.617 145.611,146.117 145.5,145.5C 145.333,126.497 145.5,107.497 146,88.5C 146.671,89.2524 147.504,89.5858 148.5,89.5C 152.167,89.5 155.833,89.5 159.5,89.5C 168.143,88.5511 176.81,87.8845 185.5,87.5 Z"/></g>
<g><path style="opacity:1" fill="#585858" d="M 245.5,94.5 C 244.833,94.5 244.167,94.5 243.5,94.5C 242.5,94.5 241.5,94.5 240.5,94.5C 240.83,112.341 240.497,130.008 239.5,147.5C 239.5,147.167 239.5,146.833 239.5,146.5C 239.5,128.833 239.5,111.167 239.5,93.5C 241.735,93.2053 243.735,93.5386 245.5,94.5 Z"/></g>
<g><path style="opacity:1" fill="#a0a0a0" d="M 189.5,89.5 C 190.497,108.326 190.83,127.326 190.5,146.5C 189.209,146.737 188.209,146.404 187.5,145.5C 189.487,127.197 190.154,108.53 189.5,89.5 Z"/></g>
<g><path style="opacity:1" fill="#8f8f8f" d="M 129.5,101.5 C 131.167,101.5 132.833,101.5 134.5,101.5C 134.5,105.167 134.5,108.833 134.5,112.5C 132.585,112.784 130.919,112.451 129.5,111.5C 128.167,108.167 128.167,104.833 129.5,101.5 Z"/></g>
<g><path style="opacity:1" fill="#f8f8f8" d="M 129.5,111.5 C 129.5,108.5 129.5,105.5 129.5,102.5C 130.833,102.5 132.167,102.5 133.5,102.5C 133.5,105.5 133.5,108.5 133.5,111.5C 132.167,111.5 130.833,111.5 129.5,111.5 Z"/></g>
<g><path style="opacity:1" fill="#adadad" d="M 234.5,88.5 C 235.568,87.5655 236.901,87.2322 238.5,87.5C 238.5,106.833 238.5,126.167 238.5,145.5C 238.167,145.5 237.833,145.5 237.5,145.5C 237.5,126.5 237.5,107.5 237.5,88.5C 236.5,88.5 235.5,88.5 234.5,88.5 Z"/></g>
<g><path style="opacity:1" fill="#c3c3c3" d="M 148.5,89.5 C 147.504,89.5858 146.671,89.2524 146,88.5C 145.5,107.497 145.333,126.497 145.5,145.5C 144.512,140.36 144.179,135.026 144.5,129.5C 144.5,115.5 144.5,101.5 144.5,87.5C 146.38,87.2291 147.713,87.8958 148.5,89.5 Z"/></g>
<g><path style="opacity:1" fill="#9c9c9c" d="M 253.5,101.5 C 253.5,105.167 253.5,108.833 253.5,112.5C 251.5,112.5 249.5,112.5 247.5,112.5C 247.5,108.833 247.5,105.167 247.5,101.5C 249.5,101.5 251.5,101.5 253.5,101.5 Z"/></g>
<g><path style="opacity:1" fill="#f9f9f9" d="M 248.5,102.5 C 249.833,102.5 251.167,102.5 252.5,102.5C 252.5,105.5 252.5,108.5 252.5,111.5C 251.167,111.5 249.833,111.5 248.5,111.5C 248.5,108.5 248.5,105.5 248.5,102.5 Z"/></g>
<g><path style="opacity:1" fill="#2a2a2a" d="M 245.5,95.5 C 246.451,96.9187 246.784,98.5853 246.5,100.5C 249.059,100.198 251.393,100.532 253.5,101.5C 251.5,101.5 249.5,101.5 247.5,101.5C 247.5,105.167 247.5,108.833 247.5,112.5C 246.512,117.64 246.179,122.974 246.5,128.5C 249.059,128.198 251.393,128.532 253.5,129.5C 253.167,129.5 252.833,129.5 252.5,129.5C 251.167,129.5 249.833,129.5 248.5,129.5C 247.518,132.962 247.185,136.629 247.5,140.5C 246.833,144.5 246.167,148.5 245.5,152.5C 245.5,133.5 245.5,114.5 245.5,95.5 Z"/></g>
<g><path style="opacity:1" fill="#d0d0d0" d="M 195.5,87.5 C 195.217,88.2891 194.717,88.9558 194,89.5C 193.171,108.338 193.338,127.005 194.5,145.5C 194.44,146.043 194.107,146.376 193.5,146.5C 192.5,127.512 192.167,108.512 192.5,89.5C 192.973,88.0937 193.973,87.427 195.5,87.5 Z"/></g>
<g><path style="opacity:1" fill="#b8b8b8" d="M 137.5,94.5 C 139.167,93.1667 140.833,93.1667 142.5,94.5C 142.5,111.833 142.5,129.167 142.5,146.5C 141.503,129.341 141.17,112.008 141.5,94.5C 140.167,94.5 138.833,94.5 137.5,94.5 Z"/></g>
<g><path style="opacity:1" fill="#2a2a2a" d="M 137.5,94.5 C 137.5,94.8333 137.5,95.1667 137.5,95.5C 136.503,114.326 136.17,133.326 136.5,152.5C 135.833,148.5 135.167,144.5 134.5,140.5C 134.815,136.629 134.482,132.962 133.5,129.5C 132.167,129.5 130.833,129.5 129.5,129.5C 131.265,128.539 133.265,128.205 135.5,128.5C 135.821,122.974 135.488,117.64 134.5,112.5C 134.5,108.833 134.5,105.167 134.5,101.5C 132.833,101.5 131.167,101.5 129.5,101.5C 131.265,100.539 133.265,100.205 135.5,100.5C 135.025,97.9179 135.692,95.9179 137.5,94.5 Z"/></g>
<g><path style="opacity:1" fill="#5a5a5a" d="M 59.5,118.5 C 60.7552,125.3 61.4219,132.3 61.5,139.5C 60.0167,132.721 59.35,125.721 59.5,118.5 Z"/></g>
<g><path style="opacity:1" fill="#f6f6f6" d="M 129.5,129.5 C 130.833,129.5 132.167,129.5 133.5,129.5C 133.5,132.833 133.5,136.167 133.5,139.5C 132.167,139.5 130.833,139.5 129.5,139.5C 129.5,136.167 129.5,132.833 129.5,129.5 Z"/></g>
<g><path style="opacity:1" fill="#a4a4a4" d="M 137.5,95.5 C 137.5,114.5 137.5,133.5 137.5,152.5C 140.059,152.198 142.393,152.532 144.5,153.5C 141.615,153.806 138.948,153.473 136.5,152.5C 136.17,133.326 136.503,114.326 137.5,95.5 Z"/></g>
<g><path style="opacity:1" fill="#9f9f9f" d="M 248.5,129.5 C 248.5,132.833 248.5,136.167 248.5,139.5C 249.833,139.5 251.167,139.5 252.5,139.5C 252.5,136.167 252.5,132.833 252.5,129.5C 252.833,129.5 253.167,129.5 253.5,129.5C 253.5,133.167 253.5,136.833 253.5,140.5C 251.5,140.5 249.5,140.5 247.5,140.5C 247.185,136.629 247.518,132.962 248.5,129.5 Z"/></g>
<g><path style="opacity:1" fill="#f9f9f9" d="M 248.5,129.5 C 249.833,129.5 251.167,129.5 252.5,129.5C 252.5,132.833 252.5,136.167 252.5,139.5C 251.167,139.5 249.833,139.5 248.5,139.5C 248.5,136.167 248.5,132.833 248.5,129.5 Z"/></g>
<g><path style="opacity:1" fill="#9b9b9b" d="M 133.5,129.5 C 134.482,132.962 134.815,136.629 134.5,140.5C 132.585,140.784 130.919,140.451 129.5,139.5C 130.833,139.5 132.167,139.5 133.5,139.5C 133.5,136.167 133.5,132.833 133.5,129.5 Z"/></g>
<g><path style="opacity:1" fill="#9e9e9e" d="M 322.5,113.5 C 322.833,113.5 323.167,113.5 323.5,113.5C 324.099,125.453 323.099,137.12 320.5,148.5C 321.715,136.874 322.381,125.207 322.5,113.5 Z"/></g>
<g><path style="opacity:1" fill="#545454" d="M 192.5,89.5 C 192.167,108.512 192.5,127.512 193.5,146.5C 194.107,146.376 194.44,146.043 194.5,145.5C 194.833,145.5 195.167,145.5 195.5,145.5C 199.167,146.167 202.833,146.833 206.5,147.5C 201.86,146.975 197.527,147.642 193.5,149.5C 193.5,148.167 192.833,147.5 191.5,147.5C 191.17,127.993 191.503,108.659 192.5,89.5 Z"/></g>
<g><path style="opacity:1" fill="#c8c8c8" d="M 243.5,94.5 C 244.167,94.5 244.833,94.5 245.5,94.5C 245.5,94.8333 245.5,95.1667 245.5,95.5C 245.5,114.5 245.5,133.5 245.5,152.5C 244.432,153.434 243.099,153.768 241.5,153.5C 238.833,153.5 236.167,153.5 233.5,153.5C 236.962,152.518 240.629,152.185 244.5,152.5C 244.82,133.091 244.487,113.757 243.5,94.5 Z"/></g>
<g><path style="opacity:1" fill="#ededed" d="M 137.5,94.5 C 138.833,94.5 140.167,94.5 141.5,94.5C 141.17,112.008 141.503,129.341 142.5,146.5C 143.683,147.504 145.016,148.338 146.5,149C 153.5,149.667 160.5,149.667 167.5,149C 175.783,145.347 183.616,145.847 191,150.5C 191.902,150.257 192.735,149.923 193.5,149.5C 197.527,147.642 201.86,146.975 206.5,147.5C 212.928,148.765 219.428,149.432 226,149.5C 230.686,149.689 235.186,149.022 239.5,147.5C 240.497,130.008 240.83,112.341 240.5,94.5C 241.5,94.5 242.5,94.5 243.5,94.5C 244.487,113.757 244.82,133.091 244.5,152.5C 240.629,152.185 236.962,152.518 233.5,153.5C 221.316,153.229 209.316,153.229 197.5,153.5C 197.64,155.124 196.973,156.29 195.5,157C 192.112,157.659 188.779,157.492 185.5,156.5C 185.5,155.167 185.5,153.833 185.5,152.5C 180.968,152.182 176.634,152.515 172.5,153.5C 163.167,153.5 153.833,153.5 144.5,153.5C 142.393,152.532 140.059,152.198 137.5,152.5C 137.5,133.5 137.5,114.5 137.5,95.5C 137.5,95.1667 137.5,94.8333 137.5,94.5 Z"/></g>
<g><path style="opacity:1" fill="#373737" d="M 142.5,94.5 C 143.167,106.167 143.833,117.833 144.5,129.5C 144.179,135.026 144.512,140.36 145.5,145.5C 145.611,146.117 145.944,146.617 146.5,147C 157.871,147.029 169.205,146.196 180.5,144.5C 182.883,144.637 185.217,144.971 187.5,145.5C 188.209,146.404 189.209,146.737 190.5,146.5C 190.461,148.224 190.794,148.557 191.5,147.5C 192.833,147.5 193.5,148.167 193.5,149.5C 192.735,149.923 191.902,150.257 191,150.5C 183.616,145.847 175.783,145.347 167.5,149C 160.5,149.667 153.5,149.667 146.5,149C 145.016,148.338 143.683,147.504 142.5,146.5C 142.5,129.167 142.5,111.833 142.5,94.5 Z"/></g>
<g><path style="opacity:1" fill="#2a2a2a" d="M 158.5,137.5 C 156.631,135.365 155.964,132.698 156.5,129.5C 156.56,128.957 156.893,128.624 157.5,128.5C 158.484,131.428 158.817,134.428 158.5,137.5 Z"/></g>
<g><path style="opacity:1" fill="#343434" d="M 224.5,128.5 C 225.11,129.391 225.443,130.391 225.5,131.5C 225.904,132.756 226.571,133.923 227.5,135C 227.164,136.03 226.497,136.53 225.5,136.5C 225.443,135.391 225.11,134.391 224.5,133.5C 224.141,131.629 223.141,130.129 221.5,129C 222.448,128.517 223.448,128.351 224.5,128.5 Z"/></g>
<g><path style="opacity:1" fill="#454545" d="M 203.5,128.5 C 203.5,128.833 203.5,129.167 203.5,129.5C 204.036,132.698 203.369,135.365 201.5,137.5C 200.945,133.988 201.612,130.988 203.5,128.5 Z"/></g>
<g><path style="opacity:1" fill="#929292" d="M 224.5,128.5 C 223.448,128.351 222.448,128.517 221.5,129C 223.141,130.129 224.141,131.629 224.5,133.5C 222.23,132.875 221.896,133.875 223.5,136.5C 222.675,137.386 221.675,137.719 220.5,137.5C 220.5,134.167 220.5,130.833 220.5,127.5C 222.099,127.232 223.432,127.566 224.5,128.5 Z"/></g>
<g><path style="opacity:1" fill="#535353" d="M 174.5,132.5 C 175.942,133.82 176.608,135.486 176.5,137.5C 174.203,135.706 172.037,133.706 170,131.5C 169.349,133.235 169.515,134.902 170.5,136.5C 169.635,137.583 168.635,137.749 167.5,137C 168.315,133.755 168.648,130.588 168.5,127.5C 170.519,129.19 172.519,130.856 174.5,132.5 Z"/></g>
<g><path style="opacity:1" fill="#a0a0a0" d="M 214.5,136.5 C 214.267,134.938 213.6,133.605 212.5,132.5C 214.256,131.448 214.923,129.781 214.5,127.5C 215.978,127.238 217.311,127.571 218.5,128.5C 217.121,131.259 215.787,133.925 214.5,136.5 Z"/></g>
<g><path style="opacity:1" fill="#bababa" d="M 197.5,127.5 C 202.305,126.513 207.305,126.179 212.5,126.5C 212.5,128.167 212.5,129.833 212.5,131.5C 210.121,127.536 209.455,127.869 210.5,132.5C 208.03,131.763 205.696,130.763 203.5,129.5C 203.5,129.167 203.5,128.833 203.5,128.5C 201.735,127.539 199.735,127.205 197.5,127.5 Z"/></g>
<g><path style="opacity:1" fill="#969696" d="M 176.5,137.5 C 176.608,135.486 175.942,133.82 174.5,132.5C 175.705,131.328 175.705,129.995 174.5,128.5C 175.325,127.614 176.325,127.281 177.5,127.5C 177.813,131.042 177.479,134.375 176.5,137.5 Z"/></g>
<g><path style="opacity:1" fill="#979797" d="M 158.5,137.5 C 158.817,134.428 158.484,131.428 157.5,128.5C 156.893,128.624 156.56,128.957 156.5,129.5C 155.596,128.791 155.263,127.791 155.5,126.5C 164.069,125.028 166.069,127.695 161.5,134.5C 159.786,133.391 159.119,134.058 159.5,136.5C 161.331,135.948 162.997,135.948 164.5,136.5C 162.604,137.466 160.604,137.799 158.5,137.5 Z"/></g>
<g><path style="opacity:1" fill="#c7c7c7" d="M 225.5,136.5 C 226.497,136.53 227.164,136.03 227.5,135C 226.571,133.923 225.904,132.756 225.5,131.5C 227.682,130.7 229.349,129.2 230.5,127C 231.944,126.219 233.277,126.386 234.5,127.5C 233.574,131.094 233.241,134.76 233.5,138.5C 230.302,139.036 227.635,138.369 225.5,136.5 Z"/></g>
<g><path style="opacity:1" fill="#3b3b3b" d="M 230.5,128.5 C 232.388,130.988 233.055,133.988 232.5,137.5C 231.448,137.649 230.448,137.483 229.5,137C 230.444,134.281 230.777,131.448 230.5,128.5 Z"/></g>
<g><path style="opacity:1" fill="#292929" d="M 212.5,131.5 C 212.5,131.833 212.5,132.167 212.5,132.5C 213.6,133.605 214.267,134.938 214.5,136.5C 213.761,136.631 213.094,136.464 212.5,136C 211.915,134.698 211.249,133.531 210.5,132.5C 209.455,127.869 210.121,127.536 212.5,131.5 Z"/></g>
<g><path style="opacity:1" fill="#7b7b7b" d="M 197.5,127.5 C 199.735,127.205 201.735,127.539 203.5,128.5C 201.612,130.988 200.945,133.988 201.5,137.5C 200.834,134.972 200.168,132.306 199.5,129.5C 197.786,130.609 197.119,129.942 197.5,127.5 Z"/></g>
<g><path style="opacity:1" fill="#c5c5c5" d="M 230.5,112.5 C 231.209,111.596 232.209,111.263 233.5,111.5C 233.5,115.5 233.5,119.5 233.5,123.5C 231.234,123.859 229.401,123.192 228,121.5C 225.304,123.342 222.471,123.675 219.5,122.5C 219.624,121.893 219.957,121.56 220.5,121.5C 220.56,122.043 220.893,122.376 221.5,122.5C 222.169,120.369 222.835,118.369 223.5,116.5C 224.32,118.14 225.153,119.807 226,121.5C 226.579,120.072 226.412,118.738 225.5,117.5C 227,116.375 228.333,115.041 229.5,113.5C 230.703,116.173 230.703,118.84 229.5,121.5C 230.325,122.386 231.325,122.719 232.5,122.5C 233.069,118.671 232.402,115.337 230.5,112.5 Z"/></g>
<g><path style="opacity:1" fill="#909090" d="M 181.5,118.5 C 182.776,119.386 182.776,120.386 181.5,121.5C 180.15,122.95 178.484,123.617 176.5,123.5C 175.909,122.849 175.243,122.182 174.5,121.5C 176.215,121.405 177.881,121.072 179.5,120.5C 180.833,120.5 181.5,119.833 181.5,118.5 Z"/></g>
<g><path style="opacity:1" fill="#dcdcdc" d="M 150.5,112.5 C 158.908,112.098 167.575,111.765 176.5,111.5C 175.833,112.167 175.167,112.833 174.5,113.5C 174.351,114.552 174.517,115.552 175,116.5C 176.859,117.579 178.359,118.912 179.5,120.5C 177.881,121.072 176.215,121.405 174.5,121.5C 175.243,122.182 175.909,122.849 176.5,123.5C 174.805,124.826 173.472,124.493 172.5,122.5C 172.234,118.921 170.901,118.587 168.5,121.5C 165.71,119.667 166.043,118.667 169.5,118.5C 169.5,117.5 169.5,116.5 169.5,115.5C 168.325,115.719 167.325,115.386 166.5,114.5C 168.061,113.653 169.561,113.986 171,115.5C 171.483,114.552 171.649,113.552 171.5,112.5C 168.833,112.5 166.167,112.5 163.5,112.5C 163.5,115.833 163.5,119.167 163.5,122.5C 166.167,122.5 168.833,122.5 171.5,122.5C 168.713,123.477 165.713,123.81 162.5,123.5C 162.5,120.833 162.5,118.167 162.5,115.5C 160.856,115.714 159.356,115.38 158,114.5C 157.505,116.473 157.338,118.473 157.5,120.5C 156.834,117.972 156.168,115.306 155.5,112.5C 154.513,115.768 154.18,119.102 154.5,122.5C 155.791,122.737 156.791,122.404 157.5,121.5C 158.043,121.56 158.376,121.893 158.5,122.5C 156.5,123.833 154.5,123.833 152.5,122.5C 153.544,120.232 153.711,117.899 153,115.5C 151.539,116.883 150.706,116.549 150.5,114.5C 153.167,113.833 153.167,113.167 150.5,112.5 Z"/></g>
<g><path style="opacity:1" fill="#272727" d="M 224.5,114.5 C 225.11,115.391 225.443,116.391 225.5,117.5C 226.412,118.738 226.579,120.072 226,121.5C 225.153,119.807 224.32,118.14 223.5,116.5C 220.557,113.82 220.89,113.153 224.5,114.5 Z"/></g>
<g><path style="opacity:1" fill="#5c5c5c" d="M 230.5,112.5 C 232.402,115.337 233.069,118.671 232.5,122.5C 231.325,122.719 230.325,122.386 229.5,121.5C 230.703,118.84 230.703,116.173 229.5,113.5C 229.5,112.833 229.833,112.5 230.5,112.5 Z"/></g>
<g><path style="opacity:1" fill="#9c9c9c" d="M 203.5,114.5 C 203.44,113.957 203.107,113.624 202.5,113.5C 201.516,116.428 201.183,119.428 201.5,122.5C 200.839,117.888 199.505,114.222 197.5,111.5C 200.518,111.335 203.518,111.502 206.5,112C 207.731,113.183 207.731,114.349 206.5,115.5C 205.583,114.873 204.583,114.539 203.5,114.5 Z"/></g>
<g><path style="opacity:1" fill="#3d3d3d" d="M 174.5,113.5 C 175.167,113.5 175.833,113.5 176.5,113.5C 176.369,114.239 176.536,114.906 177,115.5C 178.652,116.399 180.152,117.399 181.5,118.5C 181.5,119.833 180.833,120.5 179.5,120.5C 178.359,118.912 176.859,117.579 175,116.5C 174.517,115.552 174.351,114.552 174.5,113.5 Z"/></g>
<g><path style="opacity:1" fill="#565656" d="M 157.5,120.5 C 157.5,120.833 157.5,121.167 157.5,121.5C 156.791,122.404 155.791,122.737 154.5,122.5C 154.18,119.102 154.513,115.768 155.5,112.5C 156.168,115.306 156.834,117.972 157.5,120.5 Z"/></g>
<g><path style="opacity:1" fill="#8a8a8a" d="M 224.5,114.5 C 220.89,113.153 220.557,113.82 223.5,116.5C 222.835,118.369 222.169,120.369 221.5,122.5C 220.893,122.376 220.56,122.043 220.5,121.5C 220.5,118.5 220.5,115.5 220.5,112.5C 222.483,112.157 223.817,112.824 224.5,114.5 Z"/></g>
<g><path style="opacity:1" fill="#484848" d="M 212.5,113.5 C 215.33,115.709 216.997,118.709 217.5,122.5C 216.5,122.5 215.5,122.5 214.5,122.5C 214.768,120.901 214.434,119.568 213.5,118.5C 212.962,116.883 212.629,115.216 212.5,113.5 Z"/></g>
<g><path style="opacity:1" fill="#8c8c8c" d="M 212.5,113.5 C 212.629,115.216 212.962,116.883 213.5,118.5C 211.338,118.897 210.005,120.231 209.5,122.5C 209.005,119.122 210.005,116.122 212.5,113.5 Z"/></g>
<g><path style="opacity:1" fill="#747474" d="M 172.5,122.5 C 172.167,122.5 171.833,122.5 171.5,122.5C 168.833,122.5 166.167,122.5 163.5,122.5C 163.5,119.167 163.5,115.833 163.5,112.5C 166.167,112.5 168.833,112.5 171.5,112.5C 171.649,113.552 171.483,114.552 171,115.5C 169.561,113.986 168.061,113.653 166.5,114.5C 167.325,115.386 168.325,115.719 169.5,115.5C 169.5,116.5 169.5,117.5 169.5,118.5C 166.043,118.667 165.71,119.667 168.5,121.5C 170.901,118.587 172.234,118.921 172.5,122.5 Z"/></g>
<g><path style="opacity:1" fill="#3f3f3f" d="M 203.5,114.5 C 204.036,117.698 203.369,120.365 201.5,122.5C 201.183,119.428 201.516,116.428 202.5,113.5C 203.107,113.624 203.44,113.957 203.5,114.5 Z"/></g>
<g><path style="opacity:1" fill="#555555" d="M 150.5,112.5 C 153.167,113.167 153.167,113.833 150.5,114.5C 150.5,113.833 150.5,113.167 150.5,112.5 Z"/></g>
<g><path style="opacity:1" fill="#8a8a8a" d="M 176.5,111.5 C 180.019,111.187 181.353,112.52 180.5,115.5C 179.378,114.37 178.044,113.703 176.5,113.5C 175.833,113.5 175.167,113.5 174.5,113.5C 175.167,112.833 175.833,112.167 176.5,111.5 Z"/></g>
<g><path style="opacity:1" fill="#8d8d8d" d="M 162.5,105.5 C 162.833,105.5 163.167,105.5 163.5,105.5C 164.167,106.833 164.833,106.833 165.5,105.5C 167.467,105.739 169.301,105.406 171,104.5C 171.483,105.448 171.649,106.448 171.5,107.5C 167.988,108.055 164.988,107.388 162.5,105.5 Z"/></g>
<g><path style="opacity:1" fill="#929292" d="M 199.5,99.5 C 200.872,100.512 202.205,101.512 203.5,102.5C 201.186,103.179 200.853,104.512 202.5,106.5C 201.675,107.386 200.675,107.719 199.5,107.5C 199.5,104.833 199.5,102.167 199.5,99.5 Z"/></g>
<g><path style="opacity:1" fill="#acacac" d="M 206.5,106.5 C 207.376,106.631 208.043,106.298 208.5,105.5C 207.66,104.265 206.66,103.265 205.5,102.5C 207.814,101.821 208.147,100.488 206.5,98.5C 207.325,97.6143 208.325,97.281 209.5,97.5C 209.5,100.833 209.5,104.167 209.5,107.5C 208.209,107.737 207.209,107.404 206.5,106.5 Z"/></g>
<g><path style="opacity:1" fill="#353535" d="M 227.5,101.5 C 227.539,102.583 227.873,103.583 228.5,104.5C 228.03,105.463 227.363,105.463 226.5,104.5C 225.986,102.634 225.32,100.8 224.5,99C 224.833,98.5 225.167,98 225.5,97.5C 226.362,98.7658 227.029,100.099 227.5,101.5 Z"/></g>
<g><path style="opacity:1" fill="#434343" d="M 217.5,98.5 C 218.793,97.3552 219.959,97.6885 221,99.5C 221.839,102.14 221.339,104.473 219.5,106.5C 220.112,103.615 219.446,100.949 217.5,98.5 Z"/></g>
<g><path style="opacity:1" fill="#505050" d="M 213.5,97.5 C 214.552,97.3505 215.552,97.5172 216.5,98C 215.029,100.243 214.029,102.743 213.5,105.5C 212.119,105 211.453,104 211.5,102.5C 211.902,100.7 212.569,99.0332 213.5,97.5 Z"/></g>
<g><path style="opacity:1" fill="#787878" d="M 159.5,99.5 C 158.498,102.174 156.998,104.508 155,106.5C 153.97,106.164 153.47,105.497 153.5,104.5C 154.925,106.031 155.591,105.698 155.5,103.5C 156.792,101.745 157.792,99.7451 158.5,97.5C 159.298,97.9569 159.631,98.6236 159.5,99.5 Z"/></g>
<g><path style="opacity:1" fill="#454545" d="M 150.5,97.5 C 151.5,97.5 152.5,97.5 153.5,97.5C 153.604,99.7028 154.27,101.703 155.5,103.5C 155.591,105.698 154.925,106.031 153.5,104.5C 152.688,102.055 151.688,99.7221 150.5,97.5 Z"/></g>
<g><path style="opacity:1" fill="#363636" d="M 165.5,102.5 C 165.5,103.5 165.5,104.5 165.5,105.5C 164.833,106.833 164.167,106.833 163.5,105.5C 163.187,102.753 163.52,100.086 164.5,97.5C 165.452,99.0453 165.785,100.712 165.5,102.5 Z"/></g>
<g><path style="opacity:1" fill="#7d7d7d" d="M 226.5,104.5 C 227.363,105.463 228.03,105.463 228.5,104.5C 227.873,103.583 227.539,102.583 227.5,101.5C 228.15,101.804 228.817,102.137 229.5,102.5C 230.452,100.955 230.785,99.288 230.5,97.5C 231.675,97.281 232.675,97.6143 233.5,98.5C 232.052,100.667 230.885,103 230,105.5C 228.244,106.985 227.077,106.652 226.5,104.5 Z"/></g>
<g><path style="opacity:1" fill="#404040" d="M 205.5,102.5 C 206.66,103.265 207.66,104.265 208.5,105.5C 208.043,106.298 207.376,106.631 206.5,106.5C 205.5,105.167 204.5,103.833 203.5,102.5C 202.205,101.512 200.872,100.512 199.5,99.5C 199.369,98.6236 199.702,97.9569 200.5,97.5C 202.521,98.8545 204.188,100.521 205.5,102.5 Z"/></g>
<g><path style="opacity:1" fill="#696969" d="M 172.5,97.5 C 176.167,97.5 179.833,97.5 183.5,97.5C 183.62,100.205 182.62,100.872 180.5,99.5C 179.52,102.086 179.187,104.753 179.5,107.5C 178.5,107.5 177.5,107.5 176.5,107.5C 176.813,104.753 176.48,102.086 175.5,99.5C 173.38,100.872 172.38,100.205 172.5,97.5 Z"/></g>
<g><path style="opacity:1" fill="#565656" d="M 170.5,97.5 C 170.5,98.1667 170.5,98.8333 170.5,99.5C 167.833,98.8333 167.833,98.1667 170.5,97.5 Z"/></g>
<g><path style="opacity:1" fill="#cbcbcb" d="M 150.5,97.5 C 157.167,96.1667 163.833,96.1667 170.5,97.5C 167.833,98.1667 167.833,98.8333 170.5,99.5C 169.766,100.708 169.433,102.041 169.5,103.5C 168.041,103.567 166.708,103.234 165.5,102.5C 165.785,100.712 165.452,99.0453 164.5,97.5C 163.52,100.086 163.187,102.753 163.5,105.5C 163.167,105.5 162.833,105.5 162.5,105.5C 162.808,103.076 162.474,100.743 161.5,98.5C 160.817,98.8627 160.15,99.1961 159.5,99.5C 159.631,98.6236 159.298,97.9569 158.5,97.5C 157.792,99.7451 156.792,101.745 155.5,103.5C 154.27,101.703 153.604,99.7028 153.5,97.5C 152.5,97.5 151.5,97.5 150.5,97.5 Z"/></g>
<g><path style="opacity:1" fill="#3d3d3d" d="M 237.5,145.5 C 237.833,145.5 238.167,145.5 238.5,145.5C 238.5,146.167 238.833,146.5 239.5,146.5C 239.5,146.833 239.5,147.167 239.5,147.5C 235.186,149.022 230.686,149.689 226,149.5C 219.428,149.432 212.928,148.765 206.5,147.5C 202.833,146.833 199.167,146.167 195.5,145.5C 196.964,144.84 198.631,144.507 200.5,144.5C 209.21,145.238 217.877,146.238 226.5,147.5C 230.447,147.637 234.114,146.97 237.5,145.5 Z"/></g>
<g><path style="opacity:1" fill="#616161" d="M 172.5,153.5 C 176.634,152.515 180.968,152.182 185.5,152.5C 185.5,153.833 185.5,155.167 185.5,156.5C 184.596,155.791 184.263,154.791 184.5,153.5C 180.5,153.5 176.5,153.5 172.5,153.5 Z"/></g>
<g><path style="opacity:1" fill="#2e2e2e" d="M 62.5,147.5 C 63.1174,147.611 63.6174,147.944 64,148.5C 65.0164,154.151 65.8498,159.818 66.5,165.5C 66.5,165.833 66.5,166.167 66.5,166.5C 65.8826,166.389 65.3826,166.056 65,165.5C 64.1185,159.496 63.2852,153.496 62.5,147.5 Z"/></g>
<g><path style="opacity:1" fill="#666666" d="M 197.5,153.5 C 209.316,153.229 221.316,153.229 233.5,153.5C 236.167,153.5 238.833,153.5 241.5,153.5C 226.991,154.694 212.324,154.694 197.5,153.5 Z"/></g>
<g><path style="opacity:1" fill="#8d8d8d" d="M 320.5,148.5 C 320.58,151.781 319.913,154.781 318.5,157.5C 318.42,154.219 319.087,151.219 320.5,148.5 Z"/></g>
<g><path style="opacity:1" fill="#1b120e" d="M 317.5,161.5 C 317.784,163.415 317.451,165.081 316.5,166.5C 233.167,166.5 149.833,166.5 66.5,166.5C 66.5,166.167 66.5,165.833 66.5,165.5C 149.833,165.5 233.167,165.5 316.5,165.5C 316.232,163.901 316.566,162.568 317.5,161.5 Z"/></g>
<g><path style="opacity:1" fill="#ac6b3d" d="M 66.5,166.5 C 149.833,166.5 233.167,166.5 316.5,166.5C 315.89,167.391 315.557,168.391 315.5,169.5C 232.833,168.167 150.167,168.167 67.5,169.5C 66.596,168.791 66.2627,167.791 66.5,166.5 Z"/></g>
<g><path style="opacity:1" fill="#ce7940" d="M 315.5,169.5 C 309.586,201.623 298.253,231.29 281.5,258.5C 251.979,229.812 222.312,201.312 192.5,173C 191.5,172.333 190.5,172.333 189.5,173C 185.298,177.37 180.964,181.537 176.5,185.5C 174.5,186.833 172.833,188.5 171.5,190.5C 148.036,213.304 124.369,235.638 100.5,257.5C 97.837,253.198 95.1703,248.865 92.5,244.5C 88.3968,234.635 84.0634,224.968 79.5,215.5C 76.3382,205.844 73.3382,196.178 70.5,186.5C 69.1776,180.899 68.1776,175.233 67.5,169.5C 150.167,168.167 232.833,168.167 315.5,169.5 Z"/></g>
<g><path style="opacity:1" fill="#030202" d="M 281.5,258.5 C 280.276,262.384 278.609,266.05 276.5,269.5C 272.447,274.892 268.78,280.559 265.5,286.5C 263.738,287.262 262.738,288.596 262.5,290.5C 260.1,292.296 258.433,294.63 257.5,297.5C 255.833,298.833 254.167,300.167 252.5,301.5C 232.011,282.511 212.011,263.011 192.5,243C 191.5,242.333 190.5,242.333 189.5,243C 181.937,249.633 174.937,256.8 168.5,264.5C 166.251,265.08 164.585,266.413 163.5,268.5C 162.833,269.5 162.167,270.5 161.5,271.5C 157.9,273.43 154.9,276.097 152.5,279.5C 144.78,286.889 137.114,294.222 129.5,301.5C 126.833,298.5 124.167,295.5 121.5,292.5C 121.573,290.973 120.906,289.973 119.5,289.5C 112.855,280.229 106.689,270.562 101,260.5C 100.517,259.552 100.351,258.552 100.5,257.5C 124.369,235.638 148.036,213.304 171.5,190.5C 174.167,189.833 175.833,188.167 176.5,185.5C 180.964,181.537 185.298,177.37 189.5,173C 190.5,172.333 191.5,172.333 192.5,173C 222.312,201.312 251.979,229.812 281.5,258.5 Z"/></g>
<g><path style="opacity:1" fill="#462e1d" d="M 176.5,185.5 C 175.833,188.167 174.167,189.833 171.5,190.5C 172.833,188.5 174.5,186.833 176.5,185.5 Z"/></g>
<g><path style="opacity:1" fill="#f5e9dc" d="M 70.5,186.5 C 73.3382,196.178 76.3382,205.844 79.5,215.5C 78.1092,213.04 76.9425,210.374 76,207.5C 73.8674,209.091 72.2007,211.091 71,213.5C 70.8333,213 70.6667,212.5 70.5,212C 71.6541,208.864 72.6541,205.698 73.5,202.5C 72.4893,197.145 71.4893,191.811 70.5,186.5 Z"/></g>
<g><path style="opacity:1" fill="#ce7940" d="M 252.5,301.5 C 250.669,305.154 248.336,308.487 245.5,311.5C 232.833,326.167 219.167,339.833 204.5,352.5C 200.072,354.766 196.072,357.6 192.5,361C 191.072,361.579 189.738,361.412 188.5,360.5C 179.311,354.057 170.645,346.891 162.5,339C 153.92,329.423 145.087,320.257 136,311.5C 134.035,308.035 131.868,304.702 129.5,301.5C 137.114,294.222 144.78,286.889 152.5,279.5C 156.1,277.57 159.1,274.903 161.5,271.5C 162.167,270.5 162.833,269.5 163.5,268.5C 165.749,267.92 167.415,266.587 168.5,264.5C 174.937,256.8 181.937,249.633 189.5,243C 190.5,242.333 191.5,242.333 192.5,243C 212.011,263.011 232.011,282.511 252.5,301.5 Z"/></g>
<g><path style="opacity:1" fill="#774829" d="M 168.5,264.5 C 167.415,266.587 165.749,267.92 163.5,268.5C 164.585,266.413 166.251,265.08 168.5,264.5 Z"/></g>
<g><path style="opacity:1" fill="#8c5932" d="M 161.5,271.5 C 159.1,274.903 156.1,277.57 152.5,279.5C 154.9,276.097 157.9,273.43 161.5,271.5 Z"/></g>
<g><path style="opacity:1" fill="#c3c3c2" d="M 276.5,269.5 C 276.551,271.57 275.885,273.403 274.5,275C 274.645,275.772 274.978,276.439 275.5,277C 272.388,277.625 270.555,279.458 270,282.5C 268.629,284.041 267.129,285.375 265.5,286.5C 268.78,280.559 272.447,274.892 276.5,269.5 Z"/></g>
<g><path style="opacity:1" fill="#8e8e8e" d="M 119.5,289.5 C 120.906,289.973 121.573,290.973 121.5,292.5C 120.094,292.027 119.427,291.027 119.5,289.5 Z"/></g>
<g><path style="opacity:1" fill="#9a9a9a" d="M 262.5,290.5 C 261.567,293.37 259.9,295.704 257.5,297.5C 258.433,294.63 260.1,292.296 262.5,290.5 Z"/></g>
<g><path style="opacity:1" fill="#decab7" d="M 257.5,297.5 C 255.02,301.109 252.52,304.776 250,308.5C 248.871,310.141 247.371,311.141 245.5,311.5C 248.336,308.487 250.669,305.154 252.5,301.5C 254.167,300.167 255.833,298.833 257.5,297.5 Z"/></g>
<g><path style="opacity:1" fill="#f3e3d1" d="M 204.5,352.5 C 203.826,354.024 202.826,355.358 201.5,356.5C 201.709,357.086 202.043,357.586 202.5,358C 198.657,359.851 194.824,361.684 191,363.5C 189.251,363.252 188.418,362.252 188.5,360.5C 189.738,361.412 191.072,361.579 192.5,361C 196.072,357.6 200.072,354.766 204.5,352.5 Z"/></g>
</svg>
